<?xml version="1.0" encoding="UTF-8" standalone="no"?>
<svg
   xmlns:dc="http://purl.org/dc/elements/1.1/"
   xmlns:cc="http://creativecommons.org/ns#"
   xmlns:rdf="http://www.w3.org/1999/02/22-rdf-syntax-ns#"
   xmlns:svg="http://www.w3.org/2000/svg"
   xmlns="http://www.w3.org/2000/svg"
   xmlns:sodipodi="http://sodipodi.sourceforge.net/DTD/sodipodi-0.dtd"
   xmlns:inkscape="http://www.inkscape.org/namespaces/inkscape"
   version="1.1"
   id="svg2"
   viewBox="0 0 744.09448819 1052.3622047"
   height="297mm"
   width="210mm"
   inkscape:version="0.91 r13725"
   sodipodi:docname="tauprolog-halloween.svg">
  <sodipodi:namedview
     pagecolor="#ffffff"
     bordercolor="#666666"
     borderopacity="1"
     objecttolerance="10"
     gridtolerance="10"
     guidetolerance="10"
     inkscape:pageopacity="0"
     inkscape:pageshadow="2"
     inkscape:window-width="1855"
     inkscape:window-height="1056"
     id="namedview21"
     showgrid="false"
     inkscape:zoom="0.89702955"
     inkscape:cx="528.36415"
     inkscape:cy="399.28172"
     inkscape:window-x="65"
     inkscape:window-y="24"
     inkscape:window-maximized="1"
     inkscape:current-layer="svg2" />
  <defs
     id="defs4" />
  <metadata
     id="metadata7">
    <rdf:RDF>
      <cc:Work
         rdf:about="">
        <dc:format>image/svg+xml</dc:format>
        <dc:type
           rdf:resource="http://purl.org/dc/dcmitype/StillImage" />
        <dc:title></dc:title>
      </cc:Work>
    </rdf:RDF>
  </metadata>
  <flowRoot
     xml:space="preserve"
     id="flowRoot4137"
     style="font-style:normal;font-variant:normal;font-weight:normal;font-stretch:normal;font-size:40px;line-height:125%;font-family:'Source Sans Pro';-inkscape-font-specification:'Source Sans Pro';letter-spacing:0px;word-spacing:0px;fill:#000000;fill-opacity:1;stroke:none;stroke-width:1px;stroke-linecap:butt;stroke-linejoin:miter;stroke-opacity:1"><flowRegion
       id="flowRegion4139"><rect
         id="rect4141"
         width="840.4469"
         height="638.41638"
         x="1721.2999"
         y="-870.96826"
         style="font-style:normal;font-variant:normal;font-weight:normal;font-stretch:normal;font-family:'Source Sans Pro';-inkscape-font-specification:'Source Sans Pro'" /></flowRegion><flowPara
       id="flowPara4143" /></flowRoot>  <flowRoot
     xml:space="preserve"
     id="flowRoot4174"
     style="font-style:normal;font-weight:normal;font-size:40px;line-height:125%;font-family:sans-serif;letter-spacing:0px;word-spacing:0px;fill:#000000;fill-opacity:1;stroke:none;stroke-width:1px;stroke-linecap:butt;stroke-linejoin:miter;stroke-opacity:1"><flowRegion
       id="flowRegion4176"><rect
         id="rect4178"
         width="218.19295"
         height="436.38589"
         x="-5107.3315"
         y="-580.04431" /></flowRegion><flowPara
       id="flowPara4180" /></flowRoot>  <text
     xml:space="preserve"
     style="font-style:normal;font-variant:normal;font-weight:900;font-stretch:normal;font-size:127.59326935px;line-height:125%;font-family:'Source Sans Pro';-inkscape-font-specification:'Source Sans Pro Heavy';letter-spacing:0px;word-spacing:0px;fill:#333333;fill-opacity:1;stroke:none;stroke-width:1px;stroke-linecap:butt;stroke-linejoin:miter;stroke-opacity:1"
     x="119.06931"
     y="557.44147"
     id="text4145-3"
     sodipodi:linespacing="125%"><tspan
       id="tspan4147-6"
       x="119.06931"
       y="557.44147"
       style="font-style:normal;font-variant:normal;font-weight:bold;font-stretch:normal;font-family:'Source Sans Pro';-inkscape-font-specification:'Source Sans Pro Bold';fill:#333333">Tau Prolog</tspan></text>
  <g
     style="font-style:normal;font-variant:normal;font-weight:900;font-stretch:normal;font-size:412.52355957px;line-height:125%;font-family:'Source Sans Pro';-inkscape-font-specification:'Source Sans Pro Heavy';letter-spacing:0px;word-spacing:0px;fill:#442178;fill-opacity:1;stroke:none;stroke-width:1px;stroke-linecap:butt;stroke-linejoin:miter;stroke-opacity:1"
     id="text4145-3-7"
     transform="matrix(0.30929936,0,0,0.30929936,648.25816,398.14795)">
    <path
       d="m -1852.3681,503.80191 c -10.7257,0 -19.8012,-1.6501 -27.2266,-4.95029 -7.1504,-3.30019 -13.0632,-7.97545 -17.7385,-14.0258 -4.4003,-6.32536 -7.5629,-13.75078 -9.488,-22.27627 -1.9251,-8.52549 -2.8877,-18.15104 -2.8877,-28.87665 l 0,-91.99275 -60.2285,0 0,-47.37578 c 60.5033,-0.13212 121.007,-0.0644 181.5104,-0.0644 l 0,47.44021 -61.8785,0 c -0.8251,17.87602 -1.3751,35.0645 -1.6501,51.56544 -0.275,16.22593 -0.4125,30.52674 -0.4125,42.90245 0,7.15041 1.3751,12.1007 4.1252,14.85085 3.0252,2.47514 6.8754,3.71271 11.5507,3.71271 3.8502,0 7.4254,-0.13751 10.7256,-0.41252 3.5752,-0.55003 7.7004,-1.51259 12.3757,-2.88767 l 7.8379,45.3776 c -6.6003,1.92511 -13.8882,3.5752 -21.8637,4.95028 -7.7005,1.37508 -15.9509,2.06262 -24.7514,2.06262 z"
       style="font-style:normal;font-variant:normal;font-weight:bold;font-stretch:normal;font-family:'Source Sans Pro';-inkscape-font-specification:'Source Sans Pro Bold';fill:#442178;fill-opacity:1"
       id="path4335"
       inkscape:connector-curvature="0" />
  </g>
  <path
     style="font-style:normal;font-variant:normal;font-weight:900;font-stretch:normal;font-size:412.52355957px;line-height:125%;font-family:'Source Sans Pro';-inkscape-font-specification:'Source Sans Pro Heavy';letter-spacing:0px;word-spacing:0px;fill:#9955ff;fill-opacity:1;stroke:none;stroke-width:1px;stroke-linecap:butt;stroke-linejoin:miter;stroke-opacity:1"
     d="m 45.877274,507.35418 0,24.92881 c 0,3.31742 0.298041,6.29409 0.893473,8.93102 0.595463,2.63693 1.573746,4.93393 2.934725,6.89036 1.446067,1.87137 3.274831,3.3173 5.486445,4.33805 2.296671,1.02075 5.103718,1.53139 8.421139,1.53139 1.567622,0 3.062064,-0.0909 4.516884,-0.23197 -0.386531,-0.0494 -0.787971,-0.084 -1.156872,-0.15103 -0.701739,-0.12759 -1.371867,-0.28705 -2.009828,-0.47844 -0.63796,-0.19139 -1.244156,-0.41476 -1.81834,-0.66995 -0.552903,-0.25519 -1.08131,-0.53679 -1.586365,-0.84514 -0.505055,-0.30835 -0.986603,-0.6437 -1.44381,-1.00522 -0.457206,-0.36152 -0.890658,-0.74942 -1.300016,-1.1641 -0.409357,-0.41468 -0.794744,-0.85574 -1.156253,-1.32359 -0.34023,-0.4891 -0.656674,-0.99975 -0.949055,-1.53139 -0.292411,-0.53164 -0.560698,-1.08408 -0.805261,-1.65826 -0.244532,-0.57416 -0.464815,-1.16962 -0.661498,-1.78632 -0.196714,-0.6167 -0.370046,-1.25516 -0.518912,-1.91439 -0.2977,-1.31847 -0.520519,-2.72199 -0.669354,-4.21058 -0.148866,-1.48859 -0.2235,-3.06173 -0.2235,-4.72044 l 0,-24.92881 -7.953602,0 z"
     id="path4324"
     inkscape:connector-curvature="0" />
  <path
     style="font-style:normal;font-variant:normal;font-weight:900;font-stretch:normal;font-size:412.52355957px;line-height:125%;font-family:'Source Sans Pro';-inkscape-font-specification:'Source Sans Pro Heavy';letter-spacing:0px;word-spacing:0px;fill:#9955ff;fill-opacity:1;stroke:none;stroke-width:1px;stroke-linecap:butt;stroke-linejoin:miter;stroke-opacity:1"
     d="m 35.18229,489.2783 -7.933653,0.64336 0,13.9076 7.953602,0 0,-10.61465 -0.0198,0 0,-3.93631 z"
     id="path4319"
     inkscape:connector-curvature="0" />
  <path
     inkscape:connector-curvature="0"
     id="path4233"
     d="m 615.2894,492.26516 a 35.87792,36.432146 0 0 0 -15.87587,3.78218 33.242816,33.756337 0 0 0 -5.40794,-0.48898 33.242816,33.756337 0 0 0 -33.24328,33.75534 33.242816,33.756337 0 0 0 33.24328,33.7568 33.242816,33.756337 0 0 0 7.23902,-0.85395 35.87792,36.432146 0 0 0 14.04479,2.91237 35.87792,36.432146 0 0 0 13.33025,-2.62675 33.242816,33.756337 0 0 0 5.92647,0.56833 33.242816,33.756337 0 0 0 33.24183,-33.7568 33.242816,33.756337 0 0 0 -33.24183,-33.75534 33.242816,33.756337 0 0 0 -3.87806,0.27118 35.87792,36.432146 0 0 0 -15.37866,-3.56438 z"
     style="opacity:1;fill:#9955ff;fill-opacity:1;stroke:none;stroke-width:4;stroke-miterlimit:4;stroke-dasharray:none;stroke-dashoffset:0;stroke-opacity:1" />
  <path
     style="opacity:1;fill:#442178;fill-opacity:1;stroke:none;stroke-width:4;stroke-miterlimit:4;stroke-dasharray:none;stroke-dashoffset:0;stroke-opacity:1"
     d="m 615.2733,494.96068 a 33.673289,33.673289 0 0 0 -14.90033,3.49576 31.200108,31.200108 0 0 0 -5.07564,-0.45195 31.200108,31.200108 0 0 0 -31.20054,31.19919 31.200108,31.200108 0 0 0 31.20054,31.20054 31.200108,31.200108 0 0 0 6.7942,-0.78928 33.673289,33.673289 0 0 0 13.18177,2.69181 33.673289,33.673289 0 0 0 12.51113,-2.42783 31.200108,31.200108 0 0 0 5.56231,0.5253 31.200108,31.200108 0 0 0 31.19917,-31.20054 31.200108,31.200108 0 0 0 -31.19917,-31.19919 31.200108,31.200108 0 0 0 -3.63976,0.25065 33.673289,33.673289 0 0 0 -14.43368,-3.29446 z"
     id="path4149"
     inkscape:connector-curvature="0" />
  <path
     style="opacity:1;fill:#9955ff;fill-opacity:1;stroke:none;stroke-width:4;stroke-miterlimit:4;stroke-dasharray:none;stroke-dashoffset:0;stroke-opacity:1"
     d="m 592.71511,506.79796 c -12.18477,8.7e-4 -19.77881,10.13275 -19.7783,22.31752 8.7e-4,12.18377 7.59451,21.80681 19.7783,21.80768 1.1588,-0.004 2.31552,-0.0988 3.45941,-0.2841 -0.34309,-0.0438 -0.68511,-0.0959 -1.02576,-0.15586 -0.72098,-0.14612 -1.4342,-0.3282 -2.13699,-0.54557 -0.70268,-0.21673 -1.39408,-0.46845 -2.07163,-0.75424 -0.67766,-0.2868 -1.34053,-0.60734 -1.98615,-0.96039 -0.64566,-0.35224 -1.27329,-0.73654 -1.88055,-1.15147 -0.60684,-0.41547 -1.19252,-0.86101 -1.75486,-1.33498 -0.56276,-0.47392 -1.10145,-0.97569 -1.61406,-1.50344 -0.51254,-0.52766 -0.99838,-1.08062 -1.45567,-1.6568 -0.45706,-0.5766 -0.885,-1.17572 -1.28221,-1.79509 -0.39704,-0.61907 -0.76288,-1.25761 -1.09614,-1.91323 -0.33419,-0.65497 -0.63543,-1.32625 -0.90257,-2.01129 -0.26608,-0.68609 -0.49767,-1.38505 -0.6939,-2.09427 -0.19668,-0.70886 -0.35778,-1.42712 -0.48271,-2.15208 -0.12528,-0.72502 -0.21422,-1.45587 -0.2665,-2.18978 -0.0369,-0.51877 -0.0552,-1.03868 -0.0553,-1.55876 1.5e-4,-0.73551 0.0371,-1.47055 0.11063,-2.20237 0.0733,-0.73245 0.18323,-1.46079 0.32935,-2.18224 0.14612,-0.72099 0.3282,-1.43422 0.54556,-2.13701 0.21756,-0.70272 0.47012,-1.39413 0.75676,-2.07162 0.28598,-0.67762 0.60567,-1.34047 0.95786,-1.98615 0.35314,-0.64485 0.73828,-1.27163 1.15399,-1.87804 0.4154,-0.60769 0.86096,-1.19422 1.33499,-1.75738 0.47311,-0.56268 0.97404,-1.10137 1.50093,-1.61404 0.52853,-0.51175 1.08232,-0.99674 1.65932,-1.45317 0.57573,-0.45785 1.17399,-0.88662 1.79255,-1.28471 0.61909,-0.39705 1.25762,-0.76289 1.91325,-1.09616 0.65579,-0.33424 1.3279,-0.63549 2.0138,-0.90255 0.68526,-0.26599 1.38337,-0.49759 2.09174,-0.69389 0.70886,-0.19668 1.42713,-0.35779 2.15209,-0.48272 0.0988,-0.0129 0.19769,-0.0241 0.29666,-0.0352 -1.11232,-0.1813 -2.23691,-0.27712 -3.36389,-0.2866 z"
     id="path4156"
     inkscape:connector-curvature="0"
     sodipodi:nodetypes="ccccccccccsccccccccccccccccccccccccc" />
  <path
     inkscape:connector-curvature="0"
     id="path4163"
     d="m 637.46342,506.79796 c 12.18476,8.7e-4 20.15931,10.00593 20.15879,22.19067 -8.7e-4,12.1838 -7.97501,21.93366 -20.15879,21.93453 -1.15881,-0.004 -2.31553,-0.0988 -3.45942,-0.2841 0.3431,-0.0438 0.6851,-0.0959 1.02575,-0.15586 0.72099,-0.14612 1.43422,-0.3282 2.13701,-0.54557 0.70268,-0.21673 1.39409,-0.46845 2.07164,-0.75424 0.67764,-0.2868 1.3405,-0.60734 1.98613,-0.96039 0.64565,-0.35224 1.27328,-0.73654 1.88056,-1.15147 0.60684,-0.41547 1.19252,-0.86101 1.75485,-1.33498 0.56275,-0.47392 1.10145,-0.97569 1.61407,-1.50344 0.51253,-0.52766 0.99836,-1.08062 1.45566,-1.6568 0.45707,-0.5766 0.885,-1.17572 1.2822,-1.79509 0.39704,-0.61907 0.76288,-1.25761 1.09614,-1.91323 0.33419,-0.65497 0.63543,-1.32625 0.90258,-2.01129 0.26608,-0.68609 0.49768,-1.38505 0.69389,-2.09427 0.19668,-0.70886 0.3578,-1.42712 0.48271,-2.15208 0.12525,-0.72502 0.21424,-1.45587 0.2665,-2.18978 0.0369,-0.51877 0.0552,-1.03868 0.0553,-1.55876 -1.3e-4,-0.73551 -0.0371,-1.47053 -0.11057,-2.20237 -0.0734,-0.73245 -0.18324,-1.46079 -0.32936,-2.18224 -0.14611,-0.72099 -0.32818,-1.43422 -0.54555,-2.13701 -0.21757,-0.70272 -0.47013,-1.39413 -0.75675,-2.07162 -0.28599,-0.67762 -0.60568,-1.34047 -0.95788,-1.98615 -0.35312,-0.64485 -0.73826,-1.27163 -1.15397,-1.87804 -0.41541,-0.60769 -0.86097,-1.19422 -1.335,-1.75738 -0.4731,-0.56268 -0.97404,-1.10137 -1.50093,-1.61404 -0.52853,-0.51175 -1.08232,-0.99674 -1.65931,-1.45317 -0.57573,-0.45785 -1.17399,-0.88662 -1.79256,-1.28471 -0.61908,-0.39705 -1.25762,-0.76289 -1.91325,-1.09616 -0.65579,-0.33424 -1.3279,-0.63549 -2.01379,-0.90255 -0.68525,-0.26599 -1.38337,-0.49759 -2.09174,-0.69389 -0.70887,-0.19668 -1.42713,-0.35779 -2.15209,-0.48272 -0.0989,-0.0129 -0.19769,-0.0241 -0.29666,-0.0352 1.11233,-0.1813 2.23691,-0.27712 3.36389,-0.2866 z"
     style="opacity:1;fill:#9955ff;fill-opacity:1;stroke:none;stroke-width:4;stroke-miterlimit:4;stroke-dasharray:none;stroke-dashoffset:0;stroke-opacity:1"
     sodipodi:nodetypes="ccccccccccsccccccccccccccccccccccccc" />
  <path
     inkscape:connector-curvature="0"
     id="path4165"
     d="m 609.73442,506.79796 c -6.6181,8.7e-4 -14.26585,10.89378 -14.26558,23.07855 4.8e-4,12.18377 7.64801,21.04578 14.26558,21.04665 0.6294,-0.004 1.25767,-0.0988 1.87896,-0.2841 -0.18635,-0.0438 -0.3721,-0.0959 -0.55713,-0.15586 -0.39159,-0.14612 -0.77898,-0.3282 -1.1607,-0.54557 -0.38165,-0.21673 -0.7572,-0.46845 -1.12519,-0.75424 -0.36806,-0.2868 -0.72811,-0.60734 -1.07878,-0.96039 -0.35067,-0.35224 -0.69157,-0.73654 -1.02141,-1.15147 -0.3296,-0.41547 -0.64771,-0.86101 -0.95313,-1.33498 -0.30567,-0.47392 -0.59826,-0.97569 -0.87668,-1.50344 -0.27839,-0.52766 -0.54226,-1.08062 -0.79064,-1.6568 -0.24826,-0.5766 -0.48069,-1.17572 -0.69642,-1.79509 -0.21565,-0.61907 -0.41437,-1.25761 -0.59537,-1.91323 -0.18151,-0.65497 -0.34513,-1.32625 -0.49023,-2.01129 -0.14452,-0.68609 -0.2703,-1.38505 -0.37688,-2.09427 -0.10683,-0.70886 -0.19434,-1.42712 -0.26218,-2.15208 -0.0681,-0.72502 -0.11638,-1.45587 -0.14475,-2.18978 -0.02,-0.51877 -0.0301,-1.03868 -0.0301,-1.55876 7e-5,-0.73551 0.0202,-1.47055 0.0601,-2.20237 0.0398,-0.73245 0.0995,-1.46079 0.17889,-2.18224 0.0794,-0.72099 0.17824,-1.43422 0.29632,-2.13701 0.11816,-0.70272 0.25534,-1.39413 0.41101,-2.07162 0.15534,-0.67762 0.32898,-1.34047 0.52028,-1.98615 0.19179,-0.64485 0.40098,-1.27163 0.62677,-1.87804 0.22562,-0.60769 0.46763,-1.19422 0.7251,-1.75738 0.25696,-0.56268 0.52904,-1.10137 0.81522,-1.61404 0.28707,-0.51175 0.58787,-0.99674 0.90125,-1.45317 0.31271,-0.45785 0.63766,-0.88662 0.97362,-1.28471 0.33625,-0.39705 0.68307,-0.76289 1.03917,-1.09616 0.3562,-0.33424 0.72125,-0.63549 1.09378,-0.90255 0.3722,-0.26599 0.75138,-0.49759 1.13614,-0.69389 0.38501,-0.19668 0.77512,-0.35779 1.16889,-0.48272 0.0536,-0.0129 0.10738,-0.0241 0.16113,-0.0352 -0.60416,-0.1813 -1.21497,-0.27712 -1.82708,-0.2866 z"
     style="opacity:1;fill:#9955ff;fill-opacity:1;stroke:none;stroke-width:4;stroke-miterlimit:4;stroke-dasharray:none;stroke-dashoffset:0;stroke-opacity:1"
     sodipodi:nodetypes="ccccccccccsccccccccccccccccccccccccc" />
  <path
     style="opacity:1;fill:#9955ff;fill-opacity:1;stroke:none;stroke-width:4;stroke-miterlimit:4;stroke-dasharray:none;stroke-dashoffset:0;stroke-opacity:1"
     d="m 620.79692,506.79796 c 6.61811,8.7e-4 13.50484,10.13275 13.50456,22.31752 -4.7e-4,12.18377 -6.88698,21.80681 -13.50456,21.80768 -0.6294,-0.004 -1.25767,-0.0988 -1.87896,-0.2841 0.18635,-0.0438 0.37211,-0.0959 0.55713,-0.15586 0.3916,-0.14612 0.77899,-0.3282 1.16071,-0.54557 0.38165,-0.21673 0.75718,-0.46845 1.12519,-0.75424 0.36807,-0.2868 0.7281,-0.60734 1.07877,-0.96039 0.35068,-0.35224 0.69158,-0.73654 1.02141,-1.15147 0.3296,-0.41547 0.64771,-0.86101 0.95315,-1.33498 0.30566,-0.47392 0.59825,-0.97569 0.87667,-1.50344 0.27839,-0.52766 0.54226,-1.08062 0.79064,-1.6568 0.24825,-0.5766 0.48068,-1.17572 0.69642,-1.79509 0.21565,-0.61907 0.41436,-1.25761 0.59537,-1.91323 0.18151,-0.65497 0.34511,-1.32625 0.49022,-2.01129 0.14452,-0.68609 0.2703,-1.38505 0.37689,-2.09427 0.10684,-0.70886 0.19433,-1.42712 0.26218,-2.15208 0.0681,-0.72502 0.11637,-1.45587 0.14475,-2.18978 0.02,-0.51877 0.03,-1.03868 0.03,-1.55876 -10e-5,-0.73551 -0.0202,-1.47055 -0.0601,-2.20237 -0.0397,-0.73245 -0.0995,-1.46079 -0.17889,-2.18224 -0.0795,-0.72099 -0.17825,-1.43422 -0.29632,-2.13701 -0.11816,-0.70272 -0.25535,-1.39413 -0.41103,-2.07162 -0.15532,-0.67762 -0.32897,-1.34047 -0.52026,-1.98615 -0.19179,-0.64485 -0.40099,-1.27163 -0.62678,-1.87804 -0.22563,-0.60769 -0.46762,-1.19422 -0.72509,-1.75738 -0.25697,-0.56268 -0.52906,-1.10137 -0.81523,-1.61404 -0.28707,-0.51175 -0.58787,-0.99674 -0.90125,-1.45317 -0.31271,-0.45785 -0.63765,-0.88662 -0.97362,-1.28471 -0.33625,-0.39705 -0.68306,-0.76289 -1.03917,-1.09616 -0.35618,-0.33424 -0.72125,-0.63549 -1.09379,-0.90255 -0.37219,-0.26599 -0.75138,-0.49759 -1.13612,-0.69389 -0.38502,-0.19668 -0.77513,-0.35779 -1.16889,-0.48272 -0.0536,-0.0129 -0.10738,-0.0241 -0.16113,-0.0352 0.60416,-0.1813 1.21497,-0.27712 1.82707,-0.2866 z"
     id="path4167"
     inkscape:connector-curvature="0"
     sodipodi:nodetypes="ccccccccccsccccccccccccccccccccccccc" />
  <path
     sodipodi:type="star"
     style="opacity:1;fill:#9955ff;fill-opacity:1;stroke:none;stroke-width:4;stroke-miterlimit:4;stroke-dasharray:none;stroke-dashoffset:0;stroke-opacity:1"
     id="path4169"
     sodipodi:sides="5"
     sodipodi:cx="95.479919"
     sodipodi:cy="618.909"
     sodipodi:r1="5.5223284"
     sodipodi:r2="2.7611642"
     sodipodi:arg1="0.27094685"
     sodipodi:arg2="0.89926538"
     inkscape:flatsided="false"
     inkscape:rounded="0"
     inkscape:randomized="0"
     d="m 100.80078,620.38701 -3.602905,0.68362 -1.479397,3.35554 -1.763516,-3.21532 -3.648467,-0.37007 2.512993,-2.67079 -0.77548,-3.58426 3.316632,1.56468 3.169194,-1.84512 -0.463202,3.63781 z"
     inkscape:transform-center-x="-0.99287783"
     inkscape:transform-center-y="-0.52487435"
     transform="matrix(1.2872262,0,0,0.63555561,491.84133,105.32116)" />
  <path
     style="opacity:1;fill:#9955ff;fill-opacity:1;stroke:none;stroke-width:4;stroke-miterlimit:4;stroke-dasharray:none;stroke-dashoffset:0;stroke-opacity:1"
     d="m 618.17914,482.22407 c 0.91612,-0.67177 2.73631,-0.91612 3.4081,0 3.41061,4.65112 -8.36645,8.15724 -5.20183,16.50236 l -3.4081,0 c -0.42785,-5.91652 0.5507,-13.09174 5.20183,-16.50236 z"
     id="rect4171"
     inkscape:connector-curvature="0"
     sodipodi:nodetypes="aacca" />
  <path
     style="fill:#ffffff;fill-rule:evenodd;stroke:none;stroke-width:1px;stroke-linecap:butt;stroke-linejoin:miter;stroke-opacity:1"
     d="m 579.70354,539.89723 8.0718,13.36951 5.73996,-6.68475 7.89243,8.50786 6.27807,-5.34255 8.25116,4.2261 8.07182,-4.9204 5.20184,6.03685 5.73994,-8.71044 7.29372,5.93417 7.4149,-19.50625 -8.96867,7.29247 -5.20184,-4.65907 -5.56058,5.26677 -5.91932,-4.86164 -6.99555,5.52193 -8.96868,-6.12963 -6.45744,8.913 -9.32742,-8.3053 -4.30497,5.67193 z"
     id="path4174"
     inkscape:connector-curvature="0"
     sodipodi:nodetypes="ccccccccccccccccccccc" />
  <path
     style="fill:#ffffff;fill-rule:evenodd;stroke:none;stroke-width:1px;stroke-linecap:butt;stroke-linejoin:miter;stroke-opacity:1"
     d="m 626.16126,524.9149 18.11672,-1.2556 -7.17494,-10.58303 z"
     id="path4197"
     inkscape:connector-curvature="0" />
  <path
     style="fill:#ffffff;fill-rule:evenodd;stroke:none;stroke-width:1px;stroke-linecap:butt;stroke-linejoin:miter;stroke-opacity:1"
     d="m 584.36725,521.86555 19.55171,4.48434 -8.25118,-13.09427 z"
     id="path4199"
     inkscape:connector-curvature="0"
     sodipodi:nodetypes="cccc" />
</svg>
