<?xml version="1.0" encoding="UTF-8" standalone="no"?>
<svg
   xmlns:dc="http://purl.org/dc/elements/1.1/"
   xmlns:cc="http://creativecommons.org/ns#"
   xmlns:rdf="http://www.w3.org/1999/02/22-rdf-syntax-ns#"
   xmlns:svg="http://www.w3.org/2000/svg"
   xmlns="http://www.w3.org/2000/svg"
   version="1.1"
   id="svg2"
   viewBox="0 0 744.09448819 1052.3622047"
   height="297mm"
   width="210mm">
  <defs
     id="defs4" />
  <metadata
     id="metadata7">
    <rdf:RDF>
      <cc:Work
         rdf:about="">
        <dc:format>image/svg+xml</dc:format>
        <dc:type
           rdf:resource="http://purl.org/dc/dcmitype/StillImage" />
        <dc:title></dc:title>
      </cc:Work>
    </rdf:RDF>
  </metadata>
  <g
     id="layer1">
    <flowRoot
       style="fill:black;stroke:none;stroke-opacity:1;stroke-width:1px;stroke-linejoin:miter;stroke-linecap:butt;fill-opacity:1;font-family:'Source Sans Pro';font-style:normal;font-weight:normal;font-size:40px;line-height:125%;letter-spacing:0px;word-spacing:0px;-inkscape-font-specification:'Source Sans Pro';font-stretch:normal;font-variant:normal;"
       id="flowRoot4137"
       xml:space="preserve"><flowRegion
         id="flowRegion4139"><rect
           style="-inkscape-font-specification:'Source Sans Pro';font-family:'Source Sans Pro';font-weight:normal;font-style:normal;font-stretch:normal;font-variant:normal;"
           y="-870.96826"
           x="1721.2999"
           height="638.41638"
           width="840.4469"
           id="rect4141" /></flowRegion><flowPara
         id="flowPara4143" /></flowRoot>    <flowRoot
       style="fill:black;stroke:none;stroke-opacity:1;stroke-width:1px;stroke-linejoin:miter;stroke-linecap:butt;fill-opacity:1;font-family:sans-serif;font-style:normal;font-weight:normal;font-size:40px;line-height:125%;letter-spacing:0px;word-spacing:0px"
       id="flowRoot4174"
       xml:space="preserve"><flowRegion
         id="flowRegion4176"><rect
           y="-580.04431"
           x="-5107.3315"
           height="436.38589"
           width="218.19295"
           id="rect4178" /></flowRegion><flowPara
         id="flowPara4180" /></flowRoot>    <g
       transform="matrix(0.30929936,0,0,0.30929936,1224.4387,290.33503)"
       id="g4158">
      <text
         xml:space="preserve"
         style="font-style:normal;font-variant:normal;font-weight:900;font-stretch:normal;font-size:412.52355957px;line-height:125%;font-family:'Source Sans Pro';-inkscape-font-specification:'Source Sans Pro Heavy';letter-spacing:0px;word-spacing:0px;fill:#333333;fill-opacity:1;stroke:none;stroke-width:1px;stroke-linecap:butt;stroke-linejoin:miter;stroke-opacity:1"
         x="-3573.7849"
         y="863.58545"
         id="text4145-3"><tspan
           id="tspan4147-6"
           x="-3573.7849"
           y="863.58545"
           style="font-style:normal;font-variant:normal;font-weight:bold;font-stretch:normal;font-family:'Source Sans Pro';-inkscape-font-specification:'Source Sans Pro Bold';fill:#333333">Tau Prolog</tspan></text>
      <g
         style="font-style:normal;font-variant:normal;font-weight:900;font-stretch:normal;font-size:412.52355957px;line-height:125%;font-family:'Source Sans Pro';-inkscape-font-specification:'Source Sans Pro Heavy';letter-spacing:0px;word-spacing:0px;fill:#442178;fill-opacity:1;stroke:none;stroke-width:1px;stroke-linecap:butt;stroke-linejoin:miter;stroke-opacity:1"
         id="text4145-3-7"
         transform="translate(-1862.8572,348.57143)">
        <path
           d="m -1852.3681,503.80191 c -10.7257,0 -19.8012,-1.6501 -27.2266,-4.95029 -7.1504,-3.30019 -13.0632,-7.97545 -17.7385,-14.0258 -4.4003,-6.32536 -7.5629,-13.75078 -9.488,-22.27627 -1.9251,-8.52549 -2.8877,-18.15104 -2.8877,-28.87665 l 0,-91.99275 -60.2285,0 0,-47.37578 c 60.5033,-0.13212 121.007,-0.0644 181.5104,-0.0644 l 0,47.44021 -61.8785,0 c -0.8251,17.87602 -1.3751,35.0645 -1.6501,51.56544 -0.275,16.22593 -0.4125,30.52674 -0.4125,42.90245 0,7.15041 1.3751,12.1007 4.1252,14.85085 3.0252,2.47514 6.8754,3.71271 11.5507,3.71271 3.8502,0 7.4254,-0.13751 10.7256,-0.41252 3.5752,-0.55003 7.7004,-1.51259 12.3757,-2.88767 l 7.8379,45.3776 c -6.6003,1.92511 -13.8882,3.5752 -21.8637,4.95028 -7.7005,1.37508 -15.9509,2.06262 -24.7514,2.06262 z"
           style="font-style:normal;font-variant:normal;font-weight:bold;font-stretch:normal;font-family:'Source Sans Pro';-inkscape-font-specification:'Source Sans Pro Bold';fill:#442178;fill-opacity:1"
           id="path4335" />
      </g>
      <path
         style="font-style:normal;font-variant:normal;font-weight:900;font-stretch:normal;font-size:412.52355957px;line-height:125%;font-family:'Source Sans Pro';-inkscape-font-specification:'Source Sans Pro Heavy';letter-spacing:0px;word-spacing:0px;fill:#9955ff;fill-opacity:1;stroke:none;stroke-width:1px;stroke-linecap:butt;stroke-linejoin:miter;stroke-opacity:1"
         d="m -3810.4231,701.6476 0,80.59766 c 0,10.72561 0.9636,20.34951 2.8887,28.875 1.9252,8.52549 5.0881,15.95198 9.4883,22.27734 4.6753,6.05035 10.5879,10.7252 17.7383,14.02539 7.4254,3.30019 16.5009,4.95117 27.2265,4.95117 5.0683,0 9.9,-0.29391 14.6036,-0.75 -1.2497,-0.15985 -2.5476,-0.27142 -3.7403,-0.48828 -2.2688,-0.41252 -4.4354,-0.92809 -6.498,-1.54687 -2.0626,-0.61879 -4.0225,-1.34097 -5.8789,-2.16602 -1.7876,-0.82504 -3.496,-1.73549 -5.1289,-2.73242 -1.6329,-0.99693 -3.1898,-2.08118 -4.668,-3.25 -1.4782,-1.16882 -2.8796,-2.42297 -4.2031,-3.76367 -1.3235,-1.3407 -2.5695,-2.76671 -3.7383,-4.2793 -1.1,-1.58134 -2.1231,-3.23232 -3.0684,-4.95117 -0.9454,-1.71885 -1.8128,-3.50497 -2.6035,-5.36133 -0.7906,-1.85635 -1.5028,-3.78152 -2.1387,-5.77539 -0.636,-1.99386 -1.1964,-4.05808 -1.6777,-6.18945 -0.9625,-4.26275 -1.6829,-8.80051 -2.1641,-13.61328 -0.4813,-4.81278 -0.7226,-9.89892 -0.7226,-15.26172 l 0,-80.59766 -25.7149,0 z"
         id="path4324" />
      <path
         style="font-style:normal;font-variant:normal;font-weight:900;font-stretch:normal;font-size:412.52355957px;line-height:125%;font-family:'Source Sans Pro';-inkscape-font-specification:'Source Sans Pro Heavy';letter-spacing:0px;word-spacing:0px;fill:#9955ff;fill-opacity:1;stroke:none;stroke-width:1px;stroke-linecap:butt;stroke-linejoin:miter;stroke-opacity:1"
         d="m -3845.0012,643.2062 -25.6504,2.08007 0,44.96485 25.7149,0 0,-34.31836 -0.064,0 0,-12.72656 z"
         id="path4319" />
    </g>
  </g>
</svg>
