<?xml version="1.0" encoding="UTF-8" standalone="no"?>
<svg
   xmlns:dc="http://purl.org/dc/elements/1.1/"
   xmlns:cc="http://creativecommons.org/ns#"
   xmlns:rdf="http://www.w3.org/1999/02/22-rdf-syntax-ns#"
   xmlns:svg="http://www.w3.org/2000/svg"
   xmlns="http://www.w3.org/2000/svg"
   xmlns:sodipodi="http://sodipodi.sourceforge.net/DTD/sodipodi-0.dtd"
   xmlns:inkscape="http://www.inkscape.org/namespaces/inkscape"
   version="1.1"
   id="svg2"
   viewBox="0 0 744.09448819 1052.3622047"
   height="297mm"
   width="210mm"
   inkscape:version="0.91 r13725"
   sodipodi:docname="tauprolog-christmas.svg">
  <sodipodi:namedview
     pagecolor="#ffffff"
     bordercolor="#666666"
     borderopacity="1"
     objecttolerance="10"
     gridtolerance="10"
     guidetolerance="10"
     inkscape:pageopacity="0"
     inkscape:pageshadow="2"
     inkscape:window-width="1855"
     inkscape:window-height="1056"
     id="namedview21"
     showgrid="false"
     inkscape:zoom="0.63429568"
     inkscape:cx="371.163"
     inkscape:cy="796.9271"
     inkscape:window-x="65"
     inkscape:window-y="24"
     inkscape:window-maximized="1"
     inkscape:current-layer="svg2" />
  <defs
     id="defs4" />
  <metadata
     id="metadata7">
    <rdf:RDF>
      <cc:Work
         rdf:about="">
        <dc:format>image/svg+xml</dc:format>
        <dc:type
           rdf:resource="http://purl.org/dc/dcmitype/StillImage" />
        <dc:title />
      </cc:Work>
    </rdf:RDF>
  </metadata>
  <path
     inkscape:connector-curvature="0"
     id="path4210"
     d="m 579.07256,518.91931 a 1.4705385,1.4705385 0 0 0 -1.34013,0.86648 1.4705385,1.4705385 0 0 0 -1.39995,1.46784 1.4705385,1.4705385 0 0 0 0.35241,0.95377 1.4705385,1.4705385 0 0 0 -0.0646,0.43001 1.4705385,1.4705385 0 0 0 1.47108,1.47108 1.4705385,1.4705385 0 0 0 0.87132,-0.28614 1.4705385,1.4705385 0 0 0 0.68543,0.17135 1.4705385,1.4705385 0 0 0 1.47107,-1.47107 1.4705385,1.4705385 0 0 0 -0.007,-0.13579 1.4705385,1.4705385 0 0 0 0.46718,-1.07501 1.4705385,1.4705385 0 0 0 -1.12997,-1.42904 1.4705385,1.4705385 0 0 0 -1.37731,-0.96348 z"
     style="opacity:1;fill:#442178;fill-opacity:1;stroke:none;stroke-width:2;stroke-linecap:butt;stroke-miterlimit:4;stroke-dasharray:8, 8;stroke-dashoffset:0;stroke-opacity:1"
     inkscape:export-filename="/home/jariaza/Escritorio/christmas620x105.png"
     inkscape:export-xdpi="80.916809"
     inkscape:export-ydpi="80.916809" />
  <path
     inkscape:connector-curvature="0"
     id="path4186"
     d="m 589.06687,501.90074 a 5.7151202,5.7151202 0 0 0 -4.04059,7.00033 5.7151202,5.7151202 0 0 0 6.99909,4.04092 5.7151202,5.7151202 0 0 0 3.50613,-2.73582 5.7151202,5.7151202 0 0 0 4.41049,0.61457 5.7151202,5.7151202 0 0 0 3.43631,-2.60584 5.7151202,5.7151202 0 0 0 4.27143,0.54056 5.7151202,5.7151202 0 0 0 3.27315,-2.35943 5.7151202,5.7151202 0 0 0 4.01805,0.40576 5.7151202,5.7151202 0 0 0 3.27315,-2.35944 5.7151202,5.7151202 0 0 0 4.01682,0.40609 5.7151202,5.7151202 0 0 0 3.35675,-2.48251 5.7151202,5.7151202 0 0 0 4.14334,0.47287 5.7151202,5.7151202 0 0 0 4.04093,-6.99909 5.7151202,5.7151202 0 0 0 -6.99942,-4.04216 5.7151202,5.7151202 0 0 0 -3.35551,2.48218 5.7151202,5.7151202 0 0 0 -4.14458,-0.47254 5.7151202,5.7151202 0 0 0 -3.27315,2.35944 5.7151202,5.7151202 0 0 0 -4.01682,-0.4061 5.7151202,5.7151202 0 0 0 -3.27439,2.35977 5.7151202,5.7151202 0 0 0 -4.01681,-0.40609 5.7151202,5.7151202 0 0 0 -3.43631,2.60583 5.7151202,5.7151202 0 0 0 -4.27143,-0.54056 5.7151202,5.7151202 0 0 0 -3.50457,2.73674 5.7151202,5.7151202 0 0 0 -4.41206,-0.61548 z"
     style="opacity:1;fill:#442178;fill-opacity:1;stroke:none;stroke-width:2;stroke-linecap:butt;stroke-miterlimit:4;stroke-dasharray:8, 8;stroke-dashoffset:0;stroke-opacity:1"
     inkscape:export-filename="/home/jariaza/Escritorio/christmas620x105.png"
     inkscape:export-xdpi="80.916809"
     inkscape:export-ydpi="80.916809" />
  <flowRoot
     xml:space="preserve"
     id="flowRoot4137"
     style="font-style:normal;font-variant:normal;font-weight:normal;font-stretch:normal;font-size:40px;line-height:125%;font-family:'Source Sans Pro';-inkscape-font-specification:'Source Sans Pro';letter-spacing:0px;word-spacing:0px;fill:#000000;fill-opacity:1;stroke:none;stroke-width:1px;stroke-linecap:butt;stroke-linejoin:miter;stroke-opacity:1"><flowRegion
       id="flowRegion4139"><rect
         id="rect4141"
         width="840.4469"
         height="638.41638"
         x="1721.2999"
         y="-870.96826"
         style="font-style:normal;font-variant:normal;font-weight:normal;font-stretch:normal;font-family:'Source Sans Pro';-inkscape-font-specification:'Source Sans Pro'" /></flowRegion><flowPara
       id="flowPara4143" /></flowRoot>  <flowRoot
     xml:space="preserve"
     id="flowRoot4174"
     style="font-style:normal;font-weight:normal;font-size:40px;line-height:125%;font-family:sans-serif;letter-spacing:0px;word-spacing:0px;fill:#000000;fill-opacity:1;stroke:none;stroke-width:1px;stroke-linecap:butt;stroke-linejoin:miter;stroke-opacity:1"><flowRegion
       id="flowRegion4176"><rect
         id="rect4178"
         width="218.19295"
         height="436.38589"
         x="-5107.3315"
         y="-580.04431" /></flowRegion><flowPara
       id="flowPara4180" /></flowRoot>  <text
     xml:space="preserve"
     style="font-style:normal;font-variant:normal;font-weight:900;font-stretch:normal;font-size:127.59326935px;line-height:125%;font-family:'Source Sans Pro';-inkscape-font-specification:'Source Sans Pro Heavy';letter-spacing:0px;word-spacing:0px;fill:#333333;fill-opacity:1;stroke:none;stroke-width:1px;stroke-linecap:butt;stroke-linejoin:miter;stroke-opacity:1"
     x="119.06931"
     y="557.44147"
     id="text4145-3"
     sodipodi:linespacing="125%"
     inkscape:export-filename="/home/jariaza/Escritorio/christmas620x105.png"
     inkscape:export-xdpi="80.916809"
     inkscape:export-ydpi="80.916809"><tspan
       id="tspan4147-6"
       x="119.06931"
       y="557.44147"
       style="font-style:normal;font-variant:normal;font-weight:bold;font-stretch:normal;font-family:'Source Sans Pro';-inkscape-font-specification:'Source Sans Pro Bold';fill:#333333">Tau Prolog</tspan></text>
  <g
     style="font-style:normal;font-variant:normal;font-weight:900;font-stretch:normal;font-size:412.52355957px;line-height:125%;font-family:'Source Sans Pro';-inkscape-font-specification:'Source Sans Pro Heavy';letter-spacing:0px;word-spacing:0px;fill:#442178;fill-opacity:1;stroke:none;stroke-width:1px;stroke-linecap:butt;stroke-linejoin:miter;stroke-opacity:1"
     id="text4145-3-7"
     transform="matrix(0.30929936,0,0,0.30929936,648.25816,398.14795)"
     inkscape:export-filename="/home/jariaza/Escritorio/christmas620x105.png"
     inkscape:export-xdpi="80.916809"
     inkscape:export-ydpi="80.916809">
    <path
       d="m -1852.3681,503.80191 c -10.7257,0 -19.8012,-1.6501 -27.2266,-4.95029 -7.1504,-3.30019 -13.0632,-7.97545 -17.7385,-14.0258 -4.4003,-6.32536 -7.5629,-13.75078 -9.488,-22.27627 -1.9251,-8.52549 -2.8877,-18.15104 -2.8877,-28.87665 l 0,-91.99275 -60.2285,0 0,-47.37578 c 60.5033,-0.13212 121.007,-0.0644 181.5104,-0.0644 l 0,47.44021 -61.8785,0 c -0.8251,17.87602 -1.3751,35.0645 -1.6501,51.56544 -0.275,16.22593 -0.4125,30.52674 -0.4125,42.90245 0,7.15041 1.3751,12.1007 4.1252,14.85085 3.0252,2.47514 6.8754,3.71271 11.5507,3.71271 3.8502,0 7.4254,-0.13751 10.7256,-0.41252 3.5752,-0.55003 7.7004,-1.51259 12.3757,-2.88767 l 7.8379,45.3776 c -6.6003,1.92511 -13.8882,3.5752 -21.8637,4.95028 -7.7005,1.37508 -15.9509,2.06262 -24.7514,2.06262 z"
       style="font-style:normal;font-variant:normal;font-weight:bold;font-stretch:normal;font-family:'Source Sans Pro';-inkscape-font-specification:'Source Sans Pro Bold';fill:#442178;fill-opacity:1"
       id="path4335"
       inkscape:connector-curvature="0" />
  </g>
  <path
     style="font-style:normal;font-variant:normal;font-weight:900;font-stretch:normal;font-size:412.52355957px;line-height:125%;font-family:'Source Sans Pro';-inkscape-font-specification:'Source Sans Pro Heavy';letter-spacing:0px;word-spacing:0px;fill:#9955ff;fill-opacity:1;stroke:none;stroke-width:1px;stroke-linecap:butt;stroke-linejoin:miter;stroke-opacity:1"
     d="m 45.877274,507.35418 0,24.92881 c 0,3.31742 0.298041,6.29409 0.893473,8.93102 0.595463,2.63693 1.573746,4.93393 2.934725,6.89036 1.446067,1.87137 3.274831,3.3173 5.486445,4.33805 2.296671,1.02075 5.103718,1.53139 8.421139,1.53139 1.567622,0 3.062064,-0.0909 4.516884,-0.23197 -0.386531,-0.0494 -0.787971,-0.084 -1.156872,-0.15103 -0.701739,-0.12759 -1.371867,-0.28705 -2.009828,-0.47844 -0.63796,-0.19139 -1.244156,-0.41476 -1.81834,-0.66995 -0.552903,-0.25519 -1.08131,-0.53679 -1.586365,-0.84514 -0.505055,-0.30835 -0.986603,-0.6437 -1.44381,-1.00522 -0.457206,-0.36152 -0.890658,-0.74942 -1.300016,-1.1641 -0.409357,-0.41468 -0.794744,-0.85574 -1.156253,-1.32359 -0.34023,-0.4891 -0.656674,-0.99975 -0.949055,-1.53139 -0.292411,-0.53164 -0.560698,-1.08408 -0.805261,-1.65826 -0.244532,-0.57416 -0.464815,-1.16962 -0.661498,-1.78632 -0.196714,-0.6167 -0.370046,-1.25516 -0.518912,-1.91439 -0.2977,-1.31847 -0.520519,-2.72199 -0.669354,-4.21058 -0.148866,-1.48859 -0.2235,-3.06173 -0.2235,-4.72044 l 0,-24.92881 -7.953602,0 z"
     id="path4324"
     inkscape:connector-curvature="0"
     inkscape:export-filename="/home/jariaza/Escritorio/christmas620x105.png"
     inkscape:export-xdpi="80.916809"
     inkscape:export-ydpi="80.916809" />
  <path
     style="font-style:normal;font-variant:normal;font-weight:900;font-stretch:normal;font-size:412.52355957px;line-height:125%;font-family:'Source Sans Pro';-inkscape-font-specification:'Source Sans Pro Heavy';letter-spacing:0px;word-spacing:0px;fill:#9955ff;fill-opacity:1;stroke:none;stroke-width:1px;stroke-linecap:butt;stroke-linejoin:miter;stroke-opacity:1"
     d="m 35.18229,489.2783 -7.933653,0.64336 0,13.9076 7.953602,0 0,-10.61465 -0.0198,0 0,-3.93631 z"
     id="path4319"
     inkscape:connector-curvature="0"
     inkscape:export-filename="/home/jariaza/Escritorio/christmas620x105.png"
     inkscape:export-xdpi="80.916809"
     inkscape:export-ydpi="80.916809" />
  <path
     style="opacity:1;fill:#9955ff;fill-opacity:1;stroke:none;stroke-width:2;stroke-linecap:butt;stroke-miterlimit:4;stroke-dasharray:8, 8;stroke-dashoffset:0;stroke-opacity:1"
     d="m 588.82054,500.48845 a 5.7151202,5.7151202 0 0 0 -4.0406,7.00033 5.7151202,5.7151202 0 0 0 6.99909,4.04092 5.7151202,5.7151202 0 0 0 3.50613,-2.73582 5.7151202,5.7151202 0 0 0 4.4105,0.61457 5.7151202,5.7151202 0 0 0 3.4363,-2.60584 5.7151202,5.7151202 0 0 0 4.27143,0.54056 5.7151202,5.7151202 0 0 0 3.27315,-2.35943 5.7151202,5.7151202 0 0 0 4.01806,0.40576 5.7151202,5.7151202 0 0 0 3.27315,-2.35944 5.7151202,5.7151202 0 0 0 4.01682,0.40609 5.7151202,5.7151202 0 0 0 3.35675,-2.48251 5.7151202,5.7151202 0 0 0 4.14334,0.47287 5.7151202,5.7151202 0 0 0 4.04092,-6.99909 5.7151202,5.7151202 0 0 0 -6.99942,-4.04216 5.7151202,5.7151202 0 0 0 -3.35551,2.48218 5.7151202,5.7151202 0 0 0 -4.14458,-0.47254 5.7151202,5.7151202 0 0 0 -3.27315,2.35944 5.7151202,5.7151202 0 0 0 -4.01682,-0.4061 5.7151202,5.7151202 0 0 0 -3.27438,2.35977 5.7151202,5.7151202 0 0 0 -4.01682,-0.40609 5.7151202,5.7151202 0 0 0 -3.43631,2.60583 5.7151202,5.7151202 0 0 0 -4.27143,-0.54056 5.7151202,5.7151202 0 0 0 -3.50457,2.73674 5.7151202,5.7151202 0 0 0 -4.41205,-0.61548 z"
     id="path4157"
     inkscape:connector-curvature="0"
     inkscape:export-filename="/home/jariaza/Escritorio/christmas620x105.png"
     inkscape:export-xdpi="80.916809"
     inkscape:export-ydpi="80.916809" />
  <path
     style="fill:#442178;fill-rule:evenodd;stroke:none;stroke-width:1px;stroke-linecap:butt;stroke-linejoin:miter;stroke-opacity:1;fill-opacity:1"
     d="m 629.09984,493.96386 c -18.86939,-20.96599 -31.34324,-27.39995 -39.61087,-24.92923 -9.86619,2.94844 -11.37481,53.68027 -11.38968,53.71 1.56623,1.04416 5.46676,-26.8348 9.91167,-29.17491 3.66483,-1.92943 0.49267,12.41534 0.49267,12.41534 13.7336,-1.07594 27.1251,-4.39022 40.59621,-12.0212 z"
     id="path4188"
     inkscape:connector-curvature="0"
     sodipodi:nodetypes="cscscc"
     inkscape:export-filename="/home/jariaza/Escritorio/christmas620x105.png"
     inkscape:export-xdpi="80.916809"
     inkscape:export-ydpi="80.916809" />
  <path
     style="opacity:1;fill:#9955ff;fill-opacity:1;stroke:none;stroke-width:2;stroke-linecap:butt;stroke-miterlimit:4;stroke-dasharray:8, 8;stroke-dashoffset:0;stroke-opacity:1"
     d="m 579.07256,518.42913 a 1.4705385,1.4705385 0 0 0 -1.34013,0.86648 1.4705385,1.4705385 0 0 0 -1.39995,1.46785 1.4705385,1.4705385 0 0 0 0.35241,0.95376 1.4705385,1.4705385 0 0 0 -0.0646,0.43001 1.4705385,1.4705385 0 0 0 1.47108,1.47108 1.4705385,1.4705385 0 0 0 0.87132,-0.28614 1.4705385,1.4705385 0 0 0 0.68543,0.17136 1.4705385,1.4705385 0 0 0 1.47107,-1.47107 1.4705385,1.4705385 0 0 0 -0.007,-0.13579 1.4705385,1.4705385 0 0 0 0.46718,-1.07502 1.4705385,1.4705385 0 0 0 -1.12997,-1.42904 1.4705385,1.4705385 0 0 0 -1.37731,-0.96348 z"
     id="path4199"
     inkscape:connector-curvature="0"
     inkscape:export-filename="/home/jariaza/Escritorio/christmas620x105.png"
     inkscape:export-xdpi="80.916809"
     inkscape:export-ydpi="80.916809" />
  <path
     style="opacity:1;fill:#9955ff;fill-opacity:1;stroke:none;stroke-width:2;stroke-linecap:butt;stroke-miterlimit:4;stroke-dasharray:8, 8;stroke-dashoffset:0;stroke-opacity:1"
     d="m 629.12225,493.50227 a 1.0601087,1.0601087 0 0 0 -0.48047,0.10937 1.0601087,1.0601087 0 0 0 -0.51953,0.57422 1.0601087,1.0601087 0 0 0 -0.77149,0.0664 1.0601087,1.0601087 0 0 0 -0.50781,0.54882 1.0601087,1.0601087 0 0 0 -0.74609,0.0742 1.0601087,1.0601087 0 0 0 -0.50781,0.54883 1.0601087,1.0601087 0 0 0 -0.7461,0.0742 1.0601087,1.0601087 0 0 0 -0.5293,0.59961 1.0601087,1.0601087 0 0 0 -0.79687,0.0586 1.0601087,1.0601087 0 0 0 -0.53711,0.625 1.0601087,1.0601087 0 0 0 -0.82422,0.0508 1.0601087,1.0601087 0 0 0 -0.53125,0.60938 1.0601087,1.0601087 0 0 0 -0.61719,0.0508 1.0601087,1.0601087 0 0 0 -0.56445,0.5293 1.0601087,1.0601087 0 0 0 -0.77344,0.004 1.0601087,1.0601087 0 0 0 -0.55273,0.50586 1.0601087,1.0601087 0 0 0 -0.74805,0.0117 1.0601087,1.0601087 0 0 0 -0.55273,0.50586 1.0601087,1.0601087 0 0 0 -0.74805,0.0137 1.0601087,1.0601087 0 0 0 -0.57617,0.55469 1.0601087,1.0601087 0 0 0 -0.79883,-0.008 1.0601087,1.0601087 0 0 0 -0.58594,0.58203 1.0601087,1.0601087 0 0 0 -0.82617,-0.0176 1.0601087,1.0601087 0 0 0 -0.58984,0.58399 1.0601087,1.0601087 0 0 0 -0.90235,-0.20118 1.0601087,1.0601087 0 0 0 -0.63476,0.44336 1.0601087,1.0601087 0 0 0 -0.76563,-0.10937 1.0601087,1.0601087 0 0 0 -0.61914,0.42187 1.0601087,1.0601087 0 0 0 -0.74218,-0.0957 1.0601087,1.0601087 0 0 0 -0.61915,0.41992 1.0601087,1.0601087 0 0 0 -0.74414,-0.0957 1.0601087,1.0601087 0 0 0 -0.65039,0.46484 1.0601087,1.0601087 0 0 0 -0.78906,-0.12109 1.0601087,1.0601087 0 0 0 -0.66406,0.49023 1.0601087,1.0601087 0 0 0 -0.81445,-0.13867 1.0601087,1.0601087 0 0 0 -0.63086,0.44141 1.0601087,1.0601087 0 0 0 -0.75,-0.10156 1.0601087,1.0601087 0 0 0 -0.63477,0.44335 1.0601087,1.0601087 0 0 0 -0.76758,-0.10937 1.0601087,1.0601087 0 0 0 -0.61719,0.42187 1.0601087,1.0601087 0 0 0 -0.74414,-0.0957 1.0601087,1.0601087 0 0 0 -0.61914,0.41992 1.0601087,1.0601087 0 0 0 -0.74218,-0.0957 1.0601087,1.0601087 0 0 0 -0.65039,0.4668 1.0601087,1.0601087 0 0 0 -0.78907,-0.12305 1.0601087,1.0601087 0 0 0 -0.66406,0.49023 1.0601087,1.0601087 0 0 0 -0.81445,-0.13671 1.0601087,1.0601087 0 0 0 -0.60157,0.39453 1.0601087,1.0601087 0 0 0 -0.72656,-0.18555 1.0601087,1.0601087 0 0 0 -0.68359,0.36133 1.0601087,1.0601087 0 0 0 -0.7461,-0.20117 1.0601087,1.0601087 0 0 0 -0.66601,0.34375 1.0601087,1.0601087 0 0 0 -0.72656,-0.18555 1.0601087,1.0601087 0 0 0 -0.66407,0.3418 1.0601087,1.0601087 0 0 0 -0.72656,-0.1836 1.0601087,1.0601087 0 0 0 -0.70117,0.38282 1.0601087,1.0601087 0 0 0 -0.76953,-0.2168 1.0601087,1.0601087 0 0 0 -0.71875,0.4043 1.0601087,1.0601087 0 0 0 -0.79102,-0.23438 1.0601087,1.0601087 0 0 0 -0.93554,1.17383 1.0601087,1.0601087 0 0 0 1.17382,0.93359 1.0601087,1.0601087 0 0 0 0.71875,-0.40625 1.0601087,1.0601087 0 0 0 0.79102,0.23438 1.0601087,1.0601087 0 0 0 0.70312,-0.38282 1.0601087,1.0601087 0 0 0 0.76758,0.2168 1.0601087,1.0601087 0 0 0 0.66602,-0.3418 1.0601087,1.0601087 0 0 0 0.72461,0.18555 1.0601087,1.0601087 0 0 0 0.66601,-0.34375 1.0601087,1.0601087 0 0 0 0.72657,0.18555 1.0601087,1.0601087 0 0 0 0.68359,-0.36328 1.0601087,1.0601087 0 0 0 0.74609,0.20117 1.0601087,1.0601087 0 0 0 0.72852,-0.41602 1.0601087,1.0601087 0 0 0 0.85351,0.16407 1.0601087,1.0601087 0 0 0 0.66407,-0.49024 1.0601087,1.0601087 0 0 0 0.81445,0.13672 1.0601087,1.0601087 0 0 0 0.65039,-0.46484 1.0601087,1.0601087 0 0 0 0.78906,0.12109 1.0601087,1.0601087 0 0 0 0.61914,-0.41992 1.0601087,1.0601087 0 0 0 0.74219,0.0957 1.0601087,1.0601087 0 0 0 0.61914,-0.42187 1.0601087,1.0601087 0 0 0 0.74219,0.0957 1.0601087,1.0601087 0 0 0 0.63672,-0.44141 1.0601087,1.0601087 0 0 0 0.76562,0.10743 1.0601087,1.0601087 0 0 0 0.63086,-0.43946 1.0601087,1.0601087 0 0 0 0.75,0.0996 1.0601087,1.0601087 0 0 0 0.66407,-0.48828 1.0601087,1.0601087 0 0 0 0.81445,0.13672 1.0601087,1.0601087 0 0 0 0.65039,-0.4668 1.0601087,1.0601087 0 0 0 0.78906,0.12305 1.0601087,1.0601087 0 0 0 0.61914,-0.42188 1.0601087,1.0601087 0 0 0 0.74414,0.0977 1.0601087,1.0601087 0 0 0 0.61914,-0.42188 1.0601087,1.0601087 0 0 0 0.74219,0.0957 1.0601087,1.0601087 0 0 0 0.63477,-0.44336 1.0601087,1.0601087 0 0 0 0.76562,0.10937 1.0601087,1.0601087 0 0 0 0.73438,-0.63086 1.0601087,1.0601087 0 0 0 1.05078,0.1543 1.0601087,1.0601087 0 0 0 0.58594,-0.58008 1.0601087,1.0601087 0 0 0 0.82617,0.0176 1.0601087,1.0601087 0 0 0 0.57617,-0.55469 1.0601087,1.0601087 0 0 0 0.79883,0.006 1.0601087,1.0601087 0 0 0 0.55273,-0.50586 1.0601087,1.0601087 0 0 0 0.74805,-0.0117 1.0601087,1.0601087 0 0 0 0.55273,-0.50586 1.0601087,1.0601087 0 0 0 0.74805,-0.0137 1.0601087,1.0601087 0 0 0 0.56445,-0.52929 1.0601087,1.0601087 0 0 0 0.77344,-0.004 1.0601087,1.0601087 0 0 0 0.61133,-0.64453 1.0601087,1.0601087 0 0 0 0.69531,-0.0859 1.0601087,1.0601087 0 0 0 0.53711,-0.625 1.0601087,1.0601087 0 0 0 0.82422,-0.0508 1.0601087,1.0601087 0 0 0 0.5293,-0.59961 1.0601087,1.0601087 0 0 0 0.79687,-0.0586 1.0601087,1.0601087 0 0 0 0.50781,-0.54883 1.0601087,1.0601087 0 0 0 0.7461,-0.0742 1.0601087,1.0601087 0 0 0 0.50781,-0.54883 1.0601087,1.0601087 0 0 0 0.74609,-0.0723 1.0601087,1.0601087 0 0 0 0.51953,-0.57617 1.0601087,1.0601087 0 0 0 0.76954,-0.0645 1.0601087,1.0601087 0 0 0 0.47851,-1.42187 1.0601087,1.0601087 0 0 0 -0.93945,-0.58789 z"
     id="path4212"
     inkscape:connector-curvature="0"
     inkscape:export-filename="/home/jariaza/Escritorio/christmas620x105.png"
     inkscape:export-xdpi="80.916809"
     inkscape:export-ydpi="80.916809" />
</svg>
